<svg viewBox="0 0 1000 1700" xmlns="http://www.w3.org/2000/svg" font-family="-apple-system, 'Segoe UI', Roboto, 'Helvetica Neue', Arial, sans-serif">
<rect x="0" y="0" width="1000" height="1700" fill="#F4F6F4"/>
<rect x="0" y="0" width="1000" height="108" fill="#6E1E2A"/>
<rect x="0.0" y="108" width="250.0" height="4" fill="#C77B20"/>
<rect x="250.0" y="108" width="250.0" height="4" fill="#245C8C"/>
<rect x="500.0" y="108" width="250.0" height="4" fill="#15806A"/>
<rect x="750.0" y="108" width="250.0" height="4" fill="#6D4AA3"/>
<text x="30" y="46" font-size="29" font-weight="800" fill="#FFFFFF" letter-spacing="0.3">GORD &amp; Barrett’s oesophagus</text>
<text x="30" y="74" font-size="13" font-weight="500" fill="#E7BEC3">FRCS Part 1 (General Surgery)  ·  UK practice (NICE · BSG)  ·  diagnosis · LA grade · Barrett’s · treatment</text>
<text x="30" y="140" font-size="13" font-weight="800" fill="#6E1E2A" letter-spacing="1.2">THE REFLUX → CANCER SPECTRUM</text>
<polygon points="30.0,154 184.0,154 200.0,177.0 184.0,200 30.0,200 30.0,177.0" fill="#15806A"/>
<text x="115.0" y="182.0" font-size="12.5" font-weight="800" fill="#FFFFFF" text-anchor="middle">Normal</text>
<polygon points="184.0,154 338.0,154 354.0,177.0 338.0,200 184.0,200 200.0,177.0" fill="#5C7E4C"/>
<text x="269.0" y="182.0" font-size="12.5" font-weight="800" fill="#FFFFFF" text-anchor="middle">GORD</text>
<polygon points="338.0,154 492.0,154 508.0,177.0 492.0,200 338.0,200 354.0,177.0" fill="#A37C2F"/>
<text x="423.0" y="182.0" font-size="12.5" font-weight="800" fill="#FFFFFF" text-anchor="middle">Oesophagitis</text>
<polygon points="492.0,154 646.0,154 662.0,177.0 646.0,200 492.0,200 508.0,177.0" fill="#C56E23"/>
<text x="577.0" y="182.0" font-size="12.5" font-weight="800" fill="#FFFFFF" text-anchor="middle">Barrett’s</text>
<polygon points="646.0,154 800.0,154 816.0,177.0 800.0,200 646.0,200 662.0,177.0" fill="#C25428"/>
<text x="731.0" y="182.0" font-size="12.5" font-weight="800" fill="#FFFFFF" text-anchor="middle">Dysplasia</text>
<polygon points="800.0,154 954.0,154 970.0,177.0 954.0,200 800.0,200 816.0,177.0" fill="#BE3A2E"/>
<text x="877.0" y="182.0" font-size="12.5" font-weight="800" fill="#FFFFFF" text-anchor="middle">Cancer</text>
<text x="30" y="216" font-size="10.5" font-weight="400" fill="#6B7B80">Reflux → mucosal injury → intestinal metaplasia → dysplasia (low- then high-grade) → oesophageal adenocarcinoma — the metaplasia–dysplasia–carcinoma sequence.</text>
<rect x="30" y="222" width="6" height="20" fill="#245C8C" rx="3"/>
<text x="46" y="238" font-size="13" font-weight="800" fill="#245C8C" letter-spacing="1.2">DIAGNOSIS</text>
<rect x="30" y="252" width="464" height="205.0" fill="#FFFFFF" rx="11" stroke="#E0E6E3" stroke-width="1.2"/>
<rect x="30" y="252" width="6" height="205.0" fill="#245C8C" rx="3"/>
<text x="54" y="280" font-size="11" font-weight="700" fill="#6B7B80" letter-spacing="1.4">clinical ± objective testing</text>
<text x="54" y="304" font-size="18" font-weight="800" fill="#38141A">Symptoms &amp; red flags</text>
<text x="54" y="326" font-size="12" font-weight="700" fill="#245C8C">Typical</text>
<text x="148" y="326.0" font-size="12" font-weight="400" fill="#2E3C42">heartburn &amp; acid regurgitation — worse lying, bending</text>
<text x="148" y="346.5" font-size="12" font-weight="400" fill="#2E3C42">or after meals</text>
<text x="54" y="367.0" font-size="12" font-weight="700" fill="#245C8C">Atypical</text>
<text x="148" y="367.0" font-size="12" font-weight="400" fill="#2E3C42">chronic cough, laryngitis, hoarseness, non-cardiac</text>
<text x="148" y="387.5" font-size="12" font-weight="400" fill="#2E3C42">chest pain, dental erosion, asthma</text>
<text x="54" y="408.0" font-size="12" font-weight="700" fill="#245C8C">Red flags → 2ww OGD</text>
<text x="148" y="408.0" font-size="12" font-weight="400" fill="#2E3C42">dysphagia; age ≥55 with weight loss + upper-abdo pain</text>
<text x="148" y="428.5" font-size="12" font-weight="400" fill="#2E3C42">/ reflux / dyspepsia; GI bleeding; anaemia; vomiting;</text>
<text x="148" y="449.0" font-size="12" font-weight="400" fill="#2E3C42">epigastric mass (NICE NG12)</text>
<rect x="506" y="252" width="464" height="225.5" fill="#FFFFFF" rx="11" stroke="#E0E6E3" stroke-width="1.2"/>
<rect x="506" y="252" width="6" height="225.5" fill="#C77B20" rx="3"/>
<text x="530" y="280" font-size="11" font-weight="700" fill="#6B7B80" letter-spacing="1.4">confirm &amp; phenotype</text>
<text x="530" y="304" font-size="18" font-weight="800" fill="#38141A">Investigations</text>
<text x="530" y="326" font-size="12" font-weight="700" fill="#C77B20">OGD</text>
<text x="610" y="326.0" font-size="12" font-weight="400" fill="#2E3C42">assess oesophagitis (LA grade), Barrett’s, stricture,</text>
<text x="610" y="346.5" font-size="12" font-weight="400" fill="#2E3C42">exclude malignancy; often normal (NERD)</text>
<text x="530" y="367.0" font-size="12" font-weight="700" fill="#C77B20">pH ± impedance</text>
<text x="610" y="367.0" font-size="12" font-weight="400" fill="#2E3C42">ambulatory study OFF PPI — gold standard; acid exposure</text>
<text x="610" y="387.5" font-size="12" font-weight="400" fill="#2E3C42">time / DeMeester score</text>
<text x="530" y="408.0" font-size="12" font-weight="700" fill="#C77B20">Manometry</text>
<text x="610" y="408.0" font-size="12" font-weight="400" fill="#2E3C42">high-resolution, before anti-reflux surgery — exclude</text>
<text x="610" y="428.5" font-size="12" font-weight="400" fill="#2E3C42">achalasia / motility disorder</text>
<text x="530" y="449.0" font-size="12" font-weight="700" fill="#C77B20">Pearl</text>
<text x="610" y="449.0" font-size="12" font-weight="400" fill="#2E3C42">LA-B or worse = objective GORD; LA-A or normal OGD →</text>
<text x="610" y="469.5" font-size="12" font-weight="400" fill="#2E3C42">confirm with pH study</text>
<rect x="30" y="483.5" width="6" height="20" fill="#C77B20" rx="3"/>
<text x="46" y="499.5" font-size="13" font-weight="800" fill="#C77B20" letter-spacing="1.2">REFLUX OESOPHAGITIS — LOS ANGELES GRADE</text>
<rect x="30" y="513.5" width="34" height="34" fill="#887D3A" rx="6"/>
<text x="47.0" y="536.5" font-size="17" font-weight="800" fill="#FFFFFF" text-anchor="middle">A</text>
<rect x="76" y="524.5" width="51.00000000000001" height="12" fill="#887D3A" rx="6"/>
<text x="242" y="528.5" font-size="11.5" font-weight="400" fill="#2E3C42">≤5 mm mucosal break(s), not extending between the tops of two mucosal folds (borderline — confirm GORD with pH)</text>
<rect x="30" y="557.5" width="34" height="34" fill="#C67421" rx="6"/>
<text x="47.0" y="580.5" font-size="17" font-weight="800" fill="#FFFFFF" text-anchor="middle">B</text>
<rect x="76" y="568.5" width="87.0" height="12" fill="#C67421" rx="6"/>
<text x="242" y="572.5" font-size="11.5" font-weight="400" fill="#2E3C42">&gt;5 mm mucosal break(s), not continuous between the tops of two folds (LA-B or worse = objective GORD)</text>
<rect x="30" y="601.5" width="34" height="34" fill="#C25927" rx="6"/>
<text x="47.0" y="624.5" font-size="17" font-weight="800" fill="#FFFFFF" text-anchor="middle">C</text>
<rect x="76" y="612.5" width="120.0" height="12" fill="#C25927" rx="6"/>
<text x="242" y="616.5" font-size="11.5" font-weight="400" fill="#2E3C42">break(s) continuous between the tops of ≥2 folds, but involving &lt;75% of the circumference</text>
<rect x="30" y="645.5" width="34" height="34" fill="#BF402D" rx="6"/>
<text x="47.0" y="668.5" font-size="17" font-weight="800" fill="#FFFFFF" text-anchor="middle">D</text>
<rect x="76" y="656.5" width="150.0" height="12" fill="#BF402D" rx="6"/>
<text x="242" y="660.5" font-size="11.5" font-weight="400" fill="#2E3C42">mucosal break(s) involving ≥75% of the oesophageal circumference (most severe)</text>
<rect x="30" y="687.5" width="6" height="20" fill="#BE3A2E" rx="3"/>
<text x="46" y="703.5" font-size="13" font-weight="800" fill="#BE3A2E" letter-spacing="1.2">BARRETT’S OESOPHAGUS</text>
<rect x="30" y="717.5" width="940" height="248.0" fill="#F7ECEE" rx="11" stroke="#E7CDD2" stroke-width="1.2"/>
<rect x="30" y="717.5" width="6" height="248.0" fill="#BE3A2E" rx="3"/>
<text x="54" y="745.5" font-size="11" font-weight="700" fill="#6B7B80" letter-spacing="1.2">METAPLASIA · columnar-lined oesophagus</text>
<text x="54" y="769.5" font-size="18" font-weight="800" fill="#38141A">Definition &amp; assessment</text>
<text x="54" y="791.5" font-size="12" font-weight="700" fill="#BE3A2E">Definition</text>
<text x="150" y="791.5" font-size="12" font-weight="400" fill="#2E3C42">distal oesophageal squamous epithelium replaced by columnar epithelium</text>
<text x="54" y="812.0" font-size="12" font-weight="700" fill="#BE3A2E">BSG (UK)</text>
<text x="150" y="812.0" font-size="12" font-weight="400" fill="#2E3C42">endoscopically visible columnar-lined oesophagus ≥1 cm above the GOJ, biopsy-confirmed;</text>
<text x="150" y="832.5" font-size="12" font-weight="400" fill="#2E3C42">intestinal metaplasia (goblet cells) often present &amp; raises risk but is NOT required for the</text>
<text x="150" y="853.0" font-size="12" font-weight="400" fill="#2E3C42">UK diagnosis (US requires it)</text>
<text x="54" y="873.5" font-size="12" font-weight="700" fill="#BE3A2E">Extent</text>
<text x="150" y="873.5" font-size="12" font-weight="400" fill="#2E3C42">Prague C&amp;M — C = circumferential, M = maximal extent (cm above GOJ); biopsy by Seattle</text>
<text x="150" y="894.0" font-size="12" font-weight="400" fill="#2E3C42">protocol (4-quadrant every 2 cm + target lesions)</text>
<text x="54" y="914.5" font-size="12" font-weight="700" fill="#BE3A2E">Cancer risk</text>
<text x="150" y="914.5" font-size="12" font-weight="400" fill="#2E3C42">progression to oesophageal adenocarcinoma ~0.3% / year (non-dysplastic); higher with</text>
<text x="150" y="935.0" font-size="12" font-weight="400" fill="#2E3C42">dysplasia, longer segments &amp; IM</text>
<text x="718" y="731.5" font-size="10.5" font-weight="700" fill="#38141A">Prague  C3 M6  (example)</text>
<rect x="724" y="739.5" width="56" height="196" fill="#FFFFFF" rx="10" stroke="#C9B3B6" stroke-width="1.4"/>
<rect x="724" y="869.5" width="56" height="66" fill="#D98A94"/>
<polygon points="740.8,803.5 763.2,803.5 763.2,869.5 740.8,869.5" fill="#E4A9B0"/>
<rect x="724" y="739.5" width="56" height="196" fill="none" rx="10" stroke="#C9B3B6" stroke-width="1.4"/>
<line x1="718" y1="935.5" x2="850" y2="935.5" stroke="#9AA6AA" stroke-width="1"/>
<line x1="718" y1="869.5" x2="820" y2="869.5" stroke="#B98891" stroke-width="1"/>
<line x1="718" y1="803.5" x2="850" y2="803.5" stroke="#B98891" stroke-width="1"/>
<text x="790" y="939.5" font-size="10" font-weight="700" fill="#6B7B80">GOJ</text>
<text x="752.0" y="753.5" font-size="1" font-weight="400" fill="#FFFFFF"></text>
<text x="730" y="753.5" font-size="9.5" font-weight="400" fill="#6B7B80">squamous</text>
<polyline points="805,869.5 810,869.5 810,935.5 805,935.5" fill="none" stroke="#8C5560" stroke-width="1.4"/>
<polyline points="833,803.5 838,803.5 838,935.5 833,935.5" fill="none" stroke="#8C5560" stroke-width="1.4"/>
<text x="816" y="906.5" font-size="10.5" font-weight="800" fill="#8C5560">C 3</text>
<text x="844" y="873.5" font-size="10.5" font-weight="800" fill="#8C5560">M 6</text>
<rect x="30" y="971.5" width="6" height="20" fill="#6D4AA3" rx="3"/>
<text x="46" y="987.5" font-size="13" font-weight="800" fill="#6D4AA3" letter-spacing="1.2">DYSPLASIA &amp; SURVEILLANCE</text>
<rect x="30.0" y="1001.5" width="176.8" height="96" fill="#FFFFFF" rx="10" stroke="#E0E6E3" stroke-width="1.2"/>
<rect x="30.0" y="1001.5" width="176.8" height="5" fill="#15806A" rx="2"/>
<text x="42.0" y="1027.5" font-size="12.5" font-weight="800" fill="#38141A">No dysplasia</text>
<text x="42.0" y="1045.5" font-size="10.5" font-weight="400" fill="#2E3C42">&lt;3 cm + IM: 3–5 yrly · ≥3</text>
<text x="42.0" y="1060.0" font-size="10.5" font-weight="400" fill="#2E3C42">cm: 2–3 yrly · &lt;3 cm no IM:</text>
<text x="42.0" y="1074.5" font-size="10.5" font-weight="400" fill="#2E3C42">confirm, consider discharge</text>
<polygon points="208.8,1042.5 218.8,1049.5 208.8,1056.5" fill="#15806A"/>
<rect x="220.8" y="1001.5" width="176.8" height="96" fill="#FFFFFF" rx="10" stroke="#E0E6E3" stroke-width="1.2"/>
<rect x="220.8" y="1001.5" width="176.8" height="5" fill="#807D3E" rx="2"/>
<text x="232.8" y="1027.5" font-size="12.5" font-weight="800" fill="#38141A">Indefinite</text>
<text x="232.8" y="1045.5" font-size="10.5" font-weight="400" fill="#2E3C42">optimise PPI; repeat OGD ~6</text>
<text x="232.8" y="1060.0" font-size="10.5" font-weight="400" fill="#2E3C42">months</text>
<polygon points="399.6,1042.5 409.6,1049.5 399.6,1056.5" fill="#807D3E"/>
<rect x="411.6" y="1001.5" width="176.8" height="96" fill="#FFFFFF" rx="10" stroke="#E0E6E3" stroke-width="1.2"/>
<rect x="411.6" y="1001.5" width="176.8" height="5" fill="#C77B20" rx="2"/>
<text x="423.6" y="1027.5" font-size="12.5" font-weight="800" fill="#38141A">Low-grade (LGD)</text>
<text x="423.6" y="1045.5" font-size="10.5" font-weight="400" fill="#2E3C42">confirm (2 pathologists);</text>
<text x="423.6" y="1060.0" font-size="10.5" font-weight="400" fill="#2E3C42">RFA offered, or 6-monthly</text>
<text x="423.6" y="1074.5" font-size="10.5" font-weight="400" fill="#2E3C42">surveillance</text>
<polygon points="590.4000000000001,1042.5 600.4000000000001,1049.5 590.4000000000001,1056.5" fill="#C77B20"/>
<rect x="602.4000000000001" y="1001.5" width="176.8" height="96" fill="#FFFFFF" rx="10" stroke="#E0E6E3" stroke-width="1.2"/>
<rect x="602.4000000000001" y="1001.5" width="176.8" height="5" fill="#BE3A2E" rx="2"/>
<text x="614.4000000000001" y="1027.5" font-size="12.5" font-weight="800" fill="#38141A">High-grade / IMC</text>
<text x="614.4000000000001" y="1045.5" font-size="10.5" font-weight="400" fill="#2E3C42">endoscopic resection of</text>
<text x="614.4000000000001" y="1060.0" font-size="10.5" font-weight="400" fill="#2E3C42">visible lesions + RFA of</text>
<text x="614.4000000000001" y="1074.5" font-size="10.5" font-weight="400" fill="#2E3C42">residual flat Barrett’s</text>
<polygon points="781.2,1042.5 791.2,1049.5 781.2,1056.5" fill="#BE3A2E"/>
<rect x="793.2" y="1001.5" width="176.8" height="96" fill="#FFFFFF" rx="10" stroke="#E0E6E3" stroke-width="1.2"/>
<rect x="793.2" y="1001.5" width="176.8" height="5" fill="#9C2727" rx="2"/>
<text x="805.2" y="1027.5" font-size="12.5" font-weight="800" fill="#38141A">Invasive / unfit</text>
<text x="805.2" y="1045.5" font-size="10.5" font-weight="400" fill="#2E3C42">oesophagectomy · oncological</text>
<text x="805.2" y="1060.0" font-size="10.5" font-weight="400" fill="#2E3C42">staging &amp; MDT</text>
<rect x="30" y="1103.5" width="6" height="20" fill="#15806A" rx="3"/>
<text x="46" y="1119.5" font-size="13" font-weight="800" fill="#15806A" letter-spacing="1.2">TREATMENT</text>
<rect x="30" y="1133.5" width="464" height="225.5" fill="#FFFFFF" rx="11" stroke="#E0E6E3" stroke-width="1.2"/>
<rect x="30" y="1133.5" width="6" height="225.5" fill="#15806A" rx="3"/>
<text x="54" y="1161.5" font-size="11" font-weight="700" fill="#6B7B80" letter-spacing="1.4">step-up, then consider surgery</text>
<text x="54" y="1185.5" font-size="18" font-weight="800" fill="#38141A">GORD</text>
<text x="54" y="1207.5" font-size="12" font-weight="700" fill="#15806A">Lifestyle</text>
<text x="126" y="1207.5" font-size="12" font-weight="400" fill="#2E3C42">weight loss, raise head of bed, smaller &amp; earlier meals,</text>
<text x="126" y="1228.0" font-size="12" font-weight="400" fill="#2E3C42">avoid trigger foods, stop smoking, cut alcohol</text>
<text x="54" y="1248.5" font-size="12" font-weight="700" fill="#15806A">Medical</text>
<text x="126" y="1248.5" font-size="12" font-weight="400" fill="#2E3C42">PPI (mainstay; step-up / step-down); H2RA; alginate /</text>
<text x="126" y="1269.0" font-size="12" font-weight="400" fill="#2E3C42">antacid; treat H. pylori if present</text>
<text x="54" y="1289.5" font-size="12" font-weight="700" fill="#15806A">Surgery</text>
<text x="126" y="1289.5" font-size="12" font-weight="400" fill="#2E3C42">refractory symptoms, volume regurgitation or patient</text>
<text x="126" y="1310.0" font-size="12" font-weight="400" fill="#2E3C42">choice — laparoscopic fundoplication (Nissen 360°,</text>
<text x="126" y="1330.5" font-size="12" font-weight="400" fill="#2E3C42">Toupet 270°, Dor) ± hiatus hernia repair; LINX magnetic</text>
<text x="126" y="1351.0" font-size="12" font-weight="400" fill="#2E3C42">sphincter. Manometry + pH mandatory first</text>
<rect x="506" y="1133.5" width="464" height="225.5" fill="#FFFFFF" rx="11" stroke="#E0E6E3" stroke-width="1.2"/>
<rect x="506" y="1133.5" width="6" height="225.5" fill="#6D4AA3" rx="3"/>
<text x="530" y="1161.5" font-size="11" font-weight="700" fill="#6B7B80" letter-spacing="1.4">treat reflux + risk-stratify</text>
<text x="530" y="1185.5" font-size="18" font-weight="800" fill="#38141A">Barrett’s</text>
<text x="530" y="1207.5" font-size="12" font-weight="700" fill="#6D4AA3">No dysplasia</text>
<text x="610" y="1207.5" font-size="12" font-weight="400" fill="#2E3C42">high-dose PPI + surveillance; AspECT (Lancet 2018):</text>
<text x="610" y="1228.0" font-size="12" font-weight="400" fill="#2E3C42">high-dose PPI ± aspirin cut HGD / adenocarcinoma /</text>
<text x="610" y="1248.5" font-size="12" font-weight="400" fill="#2E3C42">death</text>
<text x="530" y="1269.0" font-size="12" font-weight="700" fill="#6D4AA3">Dysplasia / IMC</text>
<text x="610" y="1269.0" font-size="12" font-weight="400" fill="#2E3C42">EMR / ESD of visible lesions + RFA of residual flat</text>
<text x="610" y="1289.5" font-size="12" font-weight="400" fill="#2E3C42">Barrett’s; then eradication surveillance</text>
<text x="530" y="1310.0" font-size="12" font-weight="700" fill="#6D4AA3">Invasive</text>
<text x="610" y="1310.0" font-size="12" font-weight="400" fill="#2E3C42">oesophagectomy + oncology / MDT</text>
<text x="530" y="1330.5" font-size="12" font-weight="700" fill="#6D4AA3">Note</text>
<text x="610" y="1330.5" font-size="12" font-weight="400" fill="#2E3C42">recurrence is common after ablation — ongoing</text>
<text x="610" y="1351.0" font-size="12" font-weight="400" fill="#2E3C42">surveillance required</text>
<rect x="30" y="1365.0" width="6" height="20" fill="#C77B20" rx="3"/>
<text x="46" y="1381.0" font-size="13" font-weight="800" fill="#C77B20" letter-spacing="1.2">RED FLAGS &amp; EXAM PITFALLS</text>
<rect x="30" y="1395.0" width="940" height="160.0" fill="#F6ECDD" rx="11" stroke="#EAD7B8" stroke-width="1.2"/>
<rect x="30" y="1395.0" width="6" height="160.0" fill="#C77B20" rx="3"/>
<circle cx="60" cy="1417.0" r="2.6" fill="#BE3A2E"/>
<text x="72" y="1421.0" font-size="12" font-weight="600" fill="#38141A">Dysphagia, weight loss, GI bleeding or anaemia with reflux → urgent (2ww) OGD — never just start a PPI.</text>
<circle cx="60" cy="1439.0" r="2.6" fill="#BE3A2E"/>
<text x="72" y="1443.0" font-size="12" font-weight="600" fill="#38141A">Diagnose GORD objectively: LA-B+ oesophagitis or a positive pH study — a PPI response alone is not proof.</text>
<circle cx="60" cy="1461.0" r="2.6" fill="#BE3A2E"/>
<text x="72" y="1465.0" font-size="12" font-weight="600" fill="#38141A">Do pH studies OFF PPI; manometry is mandatory before fundoplication (a missed achalasia is a disaster).</text>
<circle cx="60" cy="1483.0" r="2.6" fill="#BE3A2E"/>
<text x="72" y="1487.0" font-size="12" font-weight="600" fill="#38141A">Barrett’s is a histological diagnosis — measure with Prague C&amp;M and biopsy by the Seattle protocol.</text>
<circle cx="60" cy="1505.0" r="2.6" fill="#BE3A2E"/>
<text x="72" y="1509.0" font-size="12" font-weight="600" fill="#38141A">Do NOT ablate non-dysplastic Barrett’s — surveil it; reserve EMR / RFA for confirmed dysplasia or IMC.</text>
<circle cx="60" cy="1527.0" r="2.6" fill="#BE3A2E"/>
<text x="72" y="1531.0" font-size="12" font-weight="600" fill="#38141A">Low-grade dysplasia must be confirmed by two GI pathologists before offering RFA.</text>
<line x1="30" y1="1573.0" x2="970" y2="1573.0" stroke="#D7DEDC" stroke-width="1"/>
<text x="30" y="1592.0" font-size="10.5" font-weight="400" fill="#7C8A8E">Sources: NICE NG12 (suspected cancer referral) · NICE CG184 (dyspepsia &amp; GORD) · NICE NG231 (Barrett’s &amp; stage 1 oesophageal adenocarcinoma, 2023) · BSG Barrett’s guidelines</text>
<text x="30" y="1606.0" font-size="10.5" font-weight="400" fill="#7C8A8E">(Fitzgerald et al., Gut 2014).</text>
<text x="30" y="1620.0" font-size="10.5" font-weight="400" fill="#7C8A8E">Key trial: AspECT (Jankowski et al., Lancet 2018) — high-dose esomeprazole ± aspirin in Barrett’s. LA classification: Lundell et al., Gut 1999. IMC = intramucosal carcinoma.</text>
<text x="30" y="1634.0" font-size="10.5" font-weight="400" fill="#9AA6AA">Revision aid — verify against current local guidance before clinical use.</text>
<text x="822" y="42" font-size="21" font-weight="800" letter-spacing="0.2" fill="#FFFFFF">Mock<tspan fill="#6FA8DC">FRCS</tspan></text><text x="822" y="60" font-size="10.5" font-weight="500" fill="#E7BEC3">mockfrcs.co.uk</text><rect x="0" y="1654" width="1000" height="46" fill="#6E1E2A"/><text x="30" y="1683" font-size="14" font-weight="800" fill="#FFFFFF">Mock<tspan fill="#6FA8DC">FRCS</tspan></text><text x="970" y="1683" text-anchor="end" font-size="12.5" font-weight="600" fill="#E7BEC3">Revision resources &amp; realistic mock exams · mockfrcs.co.uk</text>
</svg>