<svg viewBox="0 0 1000 1788" xmlns="http://www.w3.org/2000/svg" font-family="-apple-system, 'Segoe UI', Roboto, 'Helvetica Neue', Arial, sans-serif">
<rect x="0" y="0" width="1000" height="1788" fill="#F4F6F4"/>
<rect x="0" y="0" width="1000" height="108" fill="#14313A"/><rect x="0" y="108" width="1000" height="4" fill="#245C8C"/><rect x="250" y="108" width="250" height="4" fill="#15806A"/><rect x="500" y="108" width="250" height="4" fill="#6D4AA3"/><rect x="750" y="108" width="250" height="4" fill="#BE3A2E"/><text x="30" y="46" font-size="30" font-weight="800" letter-spacing="0.3" fill="#FFFFFF">Colorectal polyp classification</text><text x="30" y="74" font-size="14.5" font-weight="500" fill="#AFC7CB">FRCS Part 1 (General Surgery) · colonoscopy · the diagnostic chain: shape → surface → depth → risk → management</text><rect x="30" y="126" width="940" height="196" rx="11" fill="#FFFFFF" stroke="#E0E6E3" stroke-width="1.2"/><rect x="30" y="126" width="6" height="196" rx="3" fill="#245C8C"/><circle cx="48" cy="150" r="15" fill="#245C8C"/><text x="48" y="155" text-anchor="middle" font-size="15" font-weight="800" fill="#FFFFFF">1</text><text x="74" y="148" font-size="11" font-weight="700" letter-spacing="1.4" fill="#245C8C">STEP 1</text><text x="74" y="166" font-size="18" font-weight="700" fill="#16252B">Morphology — Paris classification</text><line x1="54" y1="256" x2="184" y2="256" stroke="#C9D3D0" stroke-width="2"/><rect x="114.0" y="230" width="6" height="26" fill="#245C8C"/><ellipse cx="117.0" cy="218" rx="20" ry="15" fill="#245C8C"/><text x="119.0" y="296" text-anchor="middle" font-size="11.5" font-weight="700" fill="#16252B">0-Ip  Pedunculated</text><line x1="204" y1="256" x2="334" y2="256" stroke="#C9D3D0" stroke-width="2"/><path d="M243.0 256 Q 267.0 210 291.0 256 Z" fill="#245C8C"/><text x="269.0" y="296" text-anchor="middle" font-size="11.5" font-weight="700" fill="#16252B">0-Is  Sessile</text><line x1="354" y1="256" x2="484" y2="256" stroke="#C9D3D0" stroke-width="2"/><path d="M387.0 256 Q 417.0 240 447.0 256 Z" fill="#245C8C"/><text x="419.0" y="296" text-anchor="middle" font-size="11.5" font-weight="700" fill="#16252B">0-IIa  Sl. elevated</text><line x1="504" y1="256" x2="634" y2="256" stroke="#C9D3D0" stroke-width="2"/><rect x="537.0" y="250" width="60" height="6" rx="3" fill="#245C8C"/><text x="569.0" y="296" text-anchor="middle" font-size="11.5" font-weight="700" fill="#16252B">0-IIb  Flat</text><line x1="654" y1="256" x2="784" y2="256" stroke="#C9D3D0" stroke-width="2"/><path d="M687.0 256 L703.0 256 Q 717.0 270 731.0 256 L747.0 256" fill="none" stroke="#245C8C" stroke-width="3"/><path d="M703.0 256 Q 717.0 270 731.0 256 Z" fill="#245C8C" opacity="0.5"/><text x="719.0" y="296" text-anchor="middle" font-size="11.5" font-weight="700" fill="#16252B">0-IIc  Sl. depressed</text><line x1="804" y1="256" x2="934" y2="256" stroke="#C9D3D0" stroke-width="2"/><path d="M837.0 256 L855.0 256 L859.0 278 L875.0 278 L879.0 256 L897.0 256" fill="none" stroke="#BE3A2E" stroke-width="3"/><path d="M855.0 256 L859.0 278 L875.0 278 L879.0 256 Z" fill="#BE3A2E" opacity="0.45"/><text x="869.0" y="296" text-anchor="middle" font-size="11.5" font-weight="700" fill="#16252B">0-III  Excavated</text><text x="54" y="308" font-size="11.5" fill="#6B7B80">Protruded (I) if &gt;2.5 mm tall (closed-forceps height). Depressed / excavated (IIc, III) carry the highest risk of submucosal invasion.</text><rect x="30" y="336" width="940" height="252" rx="11" fill="#FFFFFF" stroke="#E0E6E3" stroke-width="1.2"/><rect x="30" y="336" width="6" height="252" rx="3" fill="#15806A"/><circle cx="48" cy="360" r="15" fill="#15806A"/><text x="48" y="365" text-anchor="middle" font-size="15" font-weight="800" fill="#FFFFFF">2</text><text x="74" y="358" font-size="11" font-weight="700" letter-spacing="1.4" fill="#15806A">STEP 2</text><text x="74" y="376" font-size="18" font-weight="700" fill="#16252B">Optical diagnosis — surface pattern predicts histology / invasion</text><text x="54" y="398" font-size="13.5" font-weight="800" fill="#15806A">Kudo pit pattern</text><text x="204" y="398" font-size="12.5" fill="#2E3C42">I normal · II hyperplastic (stellar) · IIIS small round (depressed)</text><text x="204" y="416" font-size="12.5" fill="#2E3C42">IIIL tubular (adenoma) · IV branched / gyriform (villous)</text><text x="204" y="434" font-size="12.5" fill="#2E3C42"><tspan font-weight='700' fill='#BE3A2E'>V irregular (Vi) / amorphous (Vn) = submucosal cancer</tspan></text><text x="54" y="468" font-size="13.5" font-weight="800" fill="#15806A">NICE (NBI)</text><text x="204" y="468" font-size="12.5" fill="#2E3C42">1 hyperplastic / serrated · 2 adenoma · <tspan font-weight='700' fill='#BE3A2E'>3 deep submucosal cancer</tspan></text><text x="54" y="502" font-size="13.5" font-weight="800" fill="#15806A">JNET (mag. NBI)</text><text x="204" y="502" font-size="12.5" fill="#2E3C42">1 HP / SSL · 2A low-grade adenoma · 2B high-grade / superficial sm</text><text x="204" y="520" font-size="12.5" fill="#2E3C42"><tspan font-weight='700' fill='#BE3A2E'>3 deep submucosal cancer</tspan></text><text x="54" y="546" font-size="13.5" font-weight="800" fill="#15806A">WASP</text><text x="204" y="546" font-size="12.5" fill="#2E3C42">NBI algorithm to identify sessile serrated lesions (SSLs)</text><text x="54" y="576" font-size="11.5" fill="#6B7B80">Kudo Vn / NICE 3 / JNET 3 predict deep invasion — do <tspan font-weight="700">not</tspan> attempt endoscopic resection; refer for staging.</text><rect x="30" y="602" width="940" height="312" rx="11" fill="#FFFFFF" stroke="#E0E6E3" stroke-width="1.2"/><rect x="30" y="602" width="6" height="312" rx="3" fill="#6D4AA3"/><circle cx="48" cy="626" r="15" fill="#6D4AA3"/><text x="48" y="631" text-anchor="middle" font-size="15" font-weight="800" fill="#FFFFFF">3</text><text x="74" y="624" font-size="11" font-weight="700" letter-spacing="1.4" fill="#6D4AA3">STEP 3</text><text x="74" y="642" font-size="18" font-weight="700" fill="#16252B">Depth of submucosal invasion — the key predictor of nodal spread</text><line x1="500.0" y1="656" x2="500.0" y2="900" stroke="#E0E6E3" stroke-width="1"/><text x="54" y="666" font-size="14" font-weight="800" fill="#6D4AA3">Haggitt — pedunculated</text><rect x="60" y="842" width="200" height="12" fill="#F0E6F2"/><rect x="60" y="854" width="200" height="20" fill="#E5D4EC"/><rect x="60" y="874" width="200" height="12" fill="#C9B3D6"/><rect x="123" y="752" width="14" height="90" fill="#6D4AA3" opacity="0.85"/><ellipse cx="130" cy="734" rx="42" ry="34" fill="#6D4AA3" opacity="0.85"/><line x1="174" y1="706" x2="210" y2="706" stroke="#6D4AA3" stroke-width="1" stroke-dasharray="3 2"/><circle cx="210" cy="706" r="9" fill="#6D4AA3"/><text x="210" y="710" text-anchor="middle" font-size="11" font-weight="800" fill="#FFFFFF">0</text><text x="225" y="710" font-size="11" fill="#2E3C42">CIS / intramucosal</text><line x1="174" y1="734" x2="210" y2="734" stroke="#6D4AA3" stroke-width="1" stroke-dasharray="3 2"/><circle cx="210" cy="734" r="9" fill="#6D4AA3"/><text x="210" y="738" text-anchor="middle" font-size="11" font-weight="800" fill="#FFFFFF">1</text><text x="225" y="738" font-size="11" fill="#2E3C42">head</text><line x1="174" y1="766" x2="210" y2="766" stroke="#6D4AA3" stroke-width="1" stroke-dasharray="3 2"/><circle cx="210" cy="766" r="9" fill="#6D4AA3"/><text x="210" y="770" text-anchor="middle" font-size="11" font-weight="800" fill="#FFFFFF">2</text><text x="225" y="770" font-size="11" fill="#2E3C42">neck</text><line x1="174" y1="800" x2="210" y2="800" stroke="#6D4AA3" stroke-width="1" stroke-dasharray="3 2"/><circle cx="210" cy="800" r="9" fill="#6D4AA3"/><text x="210" y="804" text-anchor="middle" font-size="11" font-weight="800" fill="#FFFFFF">3</text><text x="225" y="804" font-size="11" fill="#2E3C42">stalk</text><line x1="174" y1="864" x2="210" y2="864" stroke="#6D4AA3" stroke-width="1" stroke-dasharray="3 2"/><circle cx="210" cy="864" r="9" fill="#6D4AA3"/><text x="210" y="868" text-anchor="middle" font-size="11" font-weight="800" fill="#FFFFFF">4</text><text x="225" y="868" font-size="11" fill="#2E3C42">wall below stalk</text><text x="54" y="898" font-size="11.5" fill="#6B7B80">Sessile lesions are <tspan font-weight="700">Haggitt 4 by definition</tspan> (no stalk). Pedunculated tolerates depth to ~3000 µm.</text><text x="524" y="666" font-size="14" font-weight="800" fill="#6D4AA3">Kikuchi — sessile / flat</text><rect x="530" y="692" width="180" height="22" fill="#F0E6F2"/><text x="718" y="707" font-size="10.5" fill="#6B7B80">mucosa</text><rect x="530" y="714" width="180" height="26" fill="#E5D4EC"/><line x1="530" y1="714" x2="710" y2="714" stroke="#FFFFFF" stroke-width="1"/><text x="540" y="731" font-size="11.5" font-weight="700" fill="#16252B">sm1</text><text x="718" y="731" font-size="11" fill="#2E3C42">LNM ≤ ~3%</text><rect x="530" y="740" width="180" height="26" fill="#D9C2E4"/><line x1="530" y1="740" x2="710" y2="740" stroke="#FFFFFF" stroke-width="1"/><text x="540" y="757" font-size="11.5" font-weight="700" fill="#16252B">sm2</text><text x="718" y="757" font-size="11" fill="#2E3C42">LNM ~8%</text><rect x="530" y="766" width="180" height="26" fill="#CBB0DB"/><line x1="530" y1="766" x2="710" y2="766" stroke="#FFFFFF" stroke-width="1"/><text x="540" y="783" font-size="11.5" font-weight="700" fill="#16252B">sm3</text><text x="718" y="783" font-size="11" fill="#2E3C42">LNM ~23%</text><rect x="530" y="792" width="180" height="14" fill="#B79BC9"/><text x="718" y="803" font-size="10.5" fill="#6B7B80">musc. propria</text><path d="M580 692 Q 620 670 660 692 Z" fill="#6D4AA3"/><path d="M608 692 L604 748 L634 748 L630 692 Z" fill="#6D4AA3" opacity="0.8"/><rect x="524" y="826" width="422" height="46" rx="7" fill="#EFEAF6"/><text x="536" y="845" font-size="11.5" font-weight="700" fill="#16252B">Endoscopic specimens lack musc. propria → use absolute depth:</text><text x="536" y="863" font-size="12" fill="#2E3C42"><tspan font-weight="700" fill="#15806A">&lt;1000 µm = low risk</tspan>  ·  <tspan font-weight="700" fill="#BE3A2E">&gt;1000 µm = high risk</tspan></text><rect x="30" y="928" width="940" height="168" rx="11" fill="#FFFFFF" stroke="#E0E6E3" stroke-width="1.2"/><rect x="30" y="928" width="6" height="168" rx="3" fill="#BE3A2E"/><circle cx="48" cy="952" r="15" fill="#BE3A2E"/><text x="48" y="957" text-anchor="middle" font-size="15" font-weight="800" fill="#FFFFFF">4</text><text x="74" y="950" font-size="11" font-weight="700" letter-spacing="1.4" fill="#BE3A2E">STEP 4</text><text x="74" y="968" font-size="18" font-weight="700" fill="#16252B">Malignant polyp (pT1) — risk stratification</text><rect x="54" y="990" width="440.0" height="82" rx="8" fill="#E2F1EC"/><text x="68" y="1012" font-size="13" font-weight="800" fill="#15806A">LOW RISK — local excision may suffice</text><text x="68" y="1032" font-size="12" fill="#2E3C42">Sm1 / &lt;1000 µm · clear margin &gt;1 mm</text><text x="68" y="1049" font-size="12" fill="#2E3C42">Well / moderately differentiated</text><text x="68" y="1066" font-size="12" fill="#2E3C42">No LVI · no high-grade budding (Bd1)</text><rect x="510.0" y="990" width="440.0" height="82" rx="8" fill="#FBEAE6"/><text x="524.0" y="1012" font-size="13" font-weight="800" fill="#BE3A2E">HIGH RISK → resection + lymphadenectomy</text><text x="524.0" y="1032" font-size="12" fill="#2E3C42">Sm2–3 / &gt;1000 µm · margin &lt;1 mm / involved</text><text x="524.0" y="1049" font-size="12" fill="#2E3C42">Poorly differentiated</text><text x="524.0" y="1066" font-size="12" fill="#2E3C42">Lymphovascular invasion · high-grade budding (Bd3)</text><text x="54" y="1084" font-size="11.5" fill="#6B7B80">Tumour budding (ITBCC 2016): Bd1 0–4 · Bd2 5–9 · Bd3 ≥10 buds per 0.785 mm². LVI &amp; high budding independently predict nodal disease.</text><rect x="30" y="1110" width="940" height="104" rx="11" fill="#FFFFFF" stroke="#E0E6E3" stroke-width="1.2"/><rect x="30" y="1110" width="6" height="104" rx="3" fill="#14313A"/><circle cx="48" cy="1134" r="15" fill="#14313A"/><text x="48" y="1139" text-anchor="middle" font-size="15" font-weight="800" fill="#FFFFFF">5</text><text x="74" y="1132" font-size="11" font-weight="700" letter-spacing="1.4" fill="#14313A">STEP 5</text><text x="74" y="1150" font-size="18" font-weight="700" fill="#16252B">Management</text><text x="54" y="1176" font-size="13" fill="#2E3C42"><tspan font-weight="700" fill="#15806A">Low-risk:</tspan> endoscopic resection (EMR / ESD) or local excision — rectum: TEM / TAMIS — then surveillance.</text><text x="54" y="1198" font-size="13" fill="#2E3C42"><tspan font-weight="700" fill="#BE3A2E">High-risk:</tspan> segmental colectomy / TME with lymphadenectomy.  <tspan fill="#6B7B80">All decisions via MDT — UK: ACPGBI SPECC pathway.</tspan></text><rect x="30" y="1232" width="462.0" height="258" rx="11" fill="#FFFFFF" stroke="#E0E6E3" stroke-width="1.2"/><rect x="30" y="1232" width="6" height="258" rx="3" fill="#C77B20"/><text x="58" y="1262" font-size="11" font-weight="700" letter-spacing="1.5" fill="#6B7B80">FOUNDATION · HISTOLOGY</text><text x="58" y="1286" font-size="19" font-weight="700" fill="#16252B">WHO classification</text><text x="58" y="1310" font-size="12.5" font-weight="700" fill="#16252B">Adenoma architecture:</text><text x="58" y="1326" font-size="12.5" fill="#2E3C42">tubular (&lt;25% villous) · tubulovillous (25–75%) · villous</text><text x="58" y="1341" font-size="12.5" fill="#2E3C42">(&gt;75%)</text><text x="58" y="1357" font-size="12.5" font-weight="700" fill="#16252B">Dysplasia:</text><text x="58" y="1373" font-size="12.5" fill="#2E3C42">low-grade vs high-grade</text><text x="58" y="1389" font-size="12.5" font-weight="700" fill="#16252B">Advanced adenoma:</text><text x="58" y="1405" font-size="12.5" fill="#2E3C42">&#8805;10 mm, villous, or high-grade dysplasia</text><text x="58" y="1421" font-size="12.5" font-weight="700" fill="#16252B">Serrated lesions:</text><text x="58" y="1437" font-size="12.5" fill="#2E3C42">hyperplastic · SSL ± dysplasia (was SSA/P) · TSA</text><text x="58" y="1453" font-size="12.5" font-weight="700" fill="#16252B">Hamartomatous:</text><text x="58" y="1469" font-size="12.5" fill="#2E3C42">juvenile · Peutz–Jeghers</text><rect x="508.0" y="1232" width="462.0" height="258" rx="11" fill="#FFFFFF" stroke="#E0E6E3" stroke-width="1.2"/><rect x="508.0" y="1232" width="6" height="258" rx="3" fill="#15806A"/><text x="536.0" y="1262" font-size="11" font-weight="700" letter-spacing="1.5" fill="#6B7B80">SERRATED PATHWAY</text><text x="536.0" y="1286" font-size="19" font-weight="700" fill="#16252B">SSL &amp; serrated polyposis</text><text x="536.0" y="1312" font-size="12.5" fill="#2E3C42">SSL: right-sided, flat, easily missed — BRAF /</text><text x="536.0" y="1328" font-size="12.5" fill="#2E3C42">CIMP / MLH1 methylation → serrated route to CRC.</text><text x="536.0" y="1356" font-size="12.5" font-weight="700" fill="#16252B">Serrated polyposis syndrome (WHO 2019) — either:</text><text x="536.0" y="1378" font-size="12" fill="#2E3C42">(1) ≥5 serrated proximal to rectum, all ≥5 mm,</text><text x="536.0" y="1395" font-size="12" fill="#2E3C42">      with ≥2 being ≥10 mm; OR</text><text x="536.0" y="1412" font-size="12" fill="#2E3C42">(2) &gt;20 serrated of any size, ≥5 proximal to rectum.</text><text x="536.0" y="1429" font-size="12" fill="#6B7B80">Cumulative lifetime count. Commonest polyposis syndrome.</text><text x="536.0" y="1446" font-size="12" fill="#2E3C42"></text><text x="536.0" y="1463" font-size="12" fill="#6B7B80">Manage by endoscopic clearance of all polyps;</text><text x="536.0" y="1480" font-size="12" fill="#6B7B80">surgery if not endoscopically controllable.</text><rect x="30" y="1504" width="302.6666666666667" height="176" rx="11" fill="#FFFFFF" stroke="#E0E6E3" stroke-width="1.2"/><rect x="30" y="1504" width="6" height="176" rx="3" fill="#245C8C"/><text x="58" y="1534" font-size="11" font-weight="700" letter-spacing="1.5" fill="#6B7B80">LARGE FLAT LESIONS</text><text x="54" y="1558" font-size="18" font-weight="700" fill="#16252B">LST (≥10 mm)</text><text x="58" y="1582.0" font-size="11.8" font-weight="700" fill="#2E3C42">Granular (LST-G):</text><text x="58" y="1597.5" font-size="11.8" font-weight="400" fill="#2E3C42">  homogeneous / nodular-mixed</text><text x="58" y="1613.0" font-size="11.8" font-weight="700" fill="#2E3C42">Non-granular (LST-NG):</text><text x="58" y="1628.5" font-size="11.8" font-weight="400" fill="#2E3C42">  flat-elevated / pseudodepressed</text><text x="58" y="1644.0" font-size="11.8" font-weight="400" fill="#2E3C42"></text><text x="58" y="1659.5" font-size="11.8" font-weight="400" fill="#6B7B80">NG (pseudodepressed) &amp; G</text><text x="58" y="1675.0" font-size="11.8" font-weight="400" fill="#6B7B80">nodular-mixed → higher sm</text><text x="58" y="1690.5" font-size="11.8" font-weight="400" fill="#6B7B80">invasion → favour en-bloc ESD</text><rect x="348.6666666666667" y="1504" width="302.6666666666667" height="176" rx="11" fill="#FFFFFF" stroke="#E0E6E3" stroke-width="1.2"/><rect x="348.6666666666667" y="1504" width="6" height="176" rx="3" fill="#6D4AA3"/><text x="376.6666666666667" y="1534" font-size="11" font-weight="700" letter-spacing="1.5" fill="#6B7B80">PATHOLOGY REPORTING</text><text x="372.6666666666667" y="1558" font-size="18" font-weight="700" fill="#16252B">Vienna</text><text x="376.6666666666667" y="1582.0" font-size="11.8" fill="#2E3C42">1  negative</text><text x="376.6666666666667" y="1597.5" font-size="11.8" fill="#2E3C42">2  indefinite</text><text x="376.6666666666667" y="1613.0" font-size="11.8" fill="#2E3C42">3  low-grade adenoma / dysplasia</text><text x="376.6666666666667" y="1628.5" font-size="11.8" fill="#2E3C42">4  high-grade (mucosal)</text><text x="376.6666666666667" y="1644.0" font-size="11.8" fill="#2E3C42">5  submucosal invasion</text><text x="376.6666666666667" y="1659.5" font-size="11.8" fill="#2E3C42"></text><text x="376.6666666666667" y="1675.0" font-size="11.8" fill="#6B7B80">Harmonises Western /</text><text x="376.6666666666667" y="1690.5" font-size="11.8" fill="#6B7B80">Japanese reporting.</text><rect x="667.3333333333334" y="1504" width="302.6666666666667" height="176" rx="11" fill="#FFFFFF" stroke="#E0E6E3" stroke-width="1.2"/><rect x="667.3333333333334" y="1504" width="6" height="176" rx="3" fill="#14313A"/><text x="695.3333333333334" y="1534" font-size="11" font-weight="700" letter-spacing="1.5" fill="#6B7B80">RELATED</text><text x="691.3333333333334" y="1558" font-size="18" font-weight="700" fill="#16252B">Polyposis</text><text x="695.3333333333334" y="1582.0" font-size="11.8" font-weight="700" fill="#2E3C42">Adenomatous:</text><text x="695.3333333333334" y="1597.5" font-size="11.8" font-weight="400" fill="#2E3C42">  FAP · attenuated FAP</text><text x="695.3333333333334" y="1613.0" font-size="11.8" font-weight="400" fill="#2E3C42">  MUTYH-assoc. (MAP) · PPAP</text><text x="695.3333333333334" y="1628.5" font-size="11.8" font-weight="700" fill="#2E3C42">Hamartomatous:</text><text x="695.3333333333334" y="1644.0" font-size="11.8" font-weight="400" fill="#2E3C42">  Peutz–Jeghers · juvenile</text><text x="695.3333333333334" y="1659.5" font-size="11.8" font-weight="400" fill="#2E3C42">  PTEN-hamartoma (Cowden)</text><text x="695.3333333333334" y="1675.0" font-size="11.8" font-weight="700" fill="#2E3C42">Serrated:</text><text x="695.3333333333334" y="1690.5" font-size="11.8" font-weight="400" fill="#2E3C42">  serrated polyposis</text><line x1="30" y1="1694" x2="970" y2="1694" stroke="#D7DEDC" stroke-width="1"/><text x="30" y="1714" font-size="10.5" fill="#7C8A8E">Kikuchi LNM risk &amp; 1000 µm threshold: Kitajima / Kikuchi; European (ESGE) guidance. Serrated polyposis: WHO 2019. Budding: ITBCC 2016. pT1 management: UK ACPGBI SPECC / MDT.</text><text x="30" y="1728" font-size="10.5" fill="#9AA6AA">Revision aid — verify against current guidance before clinical use. (Spigelman duodenal staging reserved for UGI poster.)</text>
<text x="822" y="42" font-size="21" font-weight="800" letter-spacing="0.2" fill="#FFFFFF">Mock<tspan fill="#6FA8DC">FRCS</tspan></text><text x="822" y="60" font-size="10.5" font-weight="500" fill="#AFC7CB">mockfrcs.co.uk</text><rect x="0" y="1742" width="1000" height="46" fill="#14313A"/><text x="30" y="1771" font-size="14" font-weight="800" fill="#FFFFFF">Mock<tspan fill="#6FA8DC">FRCS</tspan></text><text x="970" y="1771" text-anchor="end" font-size="12.5" font-weight="600" fill="#AFC7CB">Revision resources &amp; realistic mock exams · mockfrcs.co.uk</text>
</svg>